<?xml version="1.0" encoding="UTF-8" standalone="no"?>
<svg
   xmlns:dc="http://purl.org/dc/elements/1.1/"
   xmlns:cc="http://creativecommons.org/ns#"
   xmlns:rdf="http://www.w3.org/1999/02/22-rdf-syntax-ns#"
   xmlns:svg="http://www.w3.org/2000/svg"
   xmlns="http://www.w3.org/2000/svg"
   xmlns:xlink="http://www.w3.org/1999/xlink"
   xmlns:sodipodi="http://sodipodi.sourceforge.net/DTD/sodipodi-0.dtd"
   xmlns:inkscape="http://www.inkscape.org/namespaces/inkscape"
   height="600"
   viewBox="4.413 5.7685097 12.016887 4.9548795"
   width="800"
   version="1.1"
   id="svg8"
   sodipodi:docname="klarna.svg"
   inkscape:version="1.0.2 (e86c870879, 2021-01-15, custom)">
  <title
     id="title16">klarna</title>
  <metadata
     id="metadata14">
    <rdf:RDF>
      <cc:Work
         rdf:about="">
        <dc:format>image/svg+xml</dc:format>
        <dc:type
           rdf:resource="http://purl.org/dc/dcmitype/StillImage" />
        <dc:title>klarna</dc:title>
      </cc:Work>
    </rdf:RDF>
  </metadata>
  <defs
     id="defs12" />
  <sodipodi:namedview
     pagecolor="#ffffff"
     bordercolor="#666666"
     borderopacity="1"
     objecttolerance="10"
     gridtolerance="10"
     guidetolerance="10"
     inkscape:pageopacity="0"
     inkscape:pageshadow="2"
     inkscape:window-width="3305"
     inkscape:window-height="1577"
     id="namedview10"
     showgrid="false"
     inkscape:zoom="0.4168"
     inkscape:cx="1250"
     inkscape:cy="502.56142"
     inkscape:window-x="361"
     inkscape:window-y="135"
     inkscape:window-maximized="0"
     inkscape:current-layer="svg8" />
  <a
     id="klarna"
     xlink:href="https://www.top-casino.nl/betaalopties/klarna/"
     xlink:title="klarna ">
    <g
       fill="none"
       id="g6"
       transform="matrix(0.26400091,0,0,0.26400091,4.481423,4.9459381)">
      <rect
         fill="#ffb3c7"
         height="25"
         rx="4.3210001"
         width="45"
         id="rect2"
         x="0"
         y="0" />
      <path
         d="m 40.794,14.646 a 1.07,1.07 0 0 0 -1.066,1.076 1.07,1.07 0 0 0 1.066,1.076 c 0.588,0 1.066,-0.482 1.066,-1.076 a 1.07,1.07 0 0 0 -1.066,-1.076 z m -3.508,-0.831 c 0,-0.814 -0.689,-1.473 -1.539,-1.473 -0.85,0 -1.539,0.66 -1.539,1.473 0,0.813 0.69,1.472 1.54,1.472 0.85,0 1.538,-0.659 1.538,-1.472 z m 0.006,-2.863 h 1.698 v 5.725 h -1.698 v -0.366 a 2.96,2.96 0 0 1 -1.684,0.524 c -1.653,0 -2.993,-1.352 -2.993,-3.02 0,-1.668 1.34,-3.02 2.993,-3.02 0.625,0 1.204,0.193 1.684,0.524 z M 23.7,11.698 v -0.745 h -1.739 v 5.724 h 1.743 v -2.673 c 0,-0.902 0.968,-1.386 1.64,-1.386 h 0.02 v -1.665 c -0.69,0 -1.323,0.298 -1.664,0.745 z m -4.332,2.117 c 0,-0.814 -0.689,-1.473 -1.539,-1.473 -0.85,0 -1.539,0.66 -1.539,1.473 0,0.813 0.69,1.472 1.54,1.472 0.85,0 1.538,-0.659 1.538,-1.472 z m 0.006,-2.863 h 1.699 v 5.725 h -1.699 v -0.366 c -0.48,0.33 -1.059,0.524 -1.684,0.524 -1.653,0 -2.993,-1.352 -2.993,-3.02 0,-1.668 1.34,-3.02 2.993,-3.02 0.625,0 1.204,0.193 1.684,0.524 z m 10.223,-0.153 c -0.678,0 -1.32,0.212 -1.75,0.798 v -0.644 h -1.691 v 5.724 h 1.712 v -3.008 c 0,-0.87 0.578,-1.297 1.275,-1.297 0.746,0 1.176,0.45 1.176,1.285 v 3.02 h 1.696 v -3.64 c 0,-1.332 -1.05,-2.238 -2.418,-2.238 z m -17.374,5.878 h 1.778 V 8.402 h -1.778 z m -7.81,0.002 H 6.296 V 8.4 H 4.414 Z M 10.999,8.4 c 0,1.792 -0.692,3.46 -1.926,4.699 l 2.602,3.58 H 9.35 l -2.827,-3.89 0.73,-0.552 A 4.768,4.768 0 0 0 9.155,8.4 h 1.842 z"
         fill="#0a0b09"
         id="path4" />
    </g>
  </a>
</svg>
